<svg width="80" height="80" viewBox="0 0 80 80" fill="none" xmlns="http://www.w3.org/2000/svg">
<circle cx="55" cy="55" r="25" fill="white"/>
<circle cx="25" cy="25" r="25" fill="black"/>
<path d="M48.5469 42.3125H52.5938V53.4844H57.3906V42.3125H61.4375V69H57.3906V56.6719H52.5938V69H48.5469V42.3125Z" fill="black"/>
<path d="M18.9219 12.3125H23.3125C23.9271 12.3125 24.6042 12.349 25.3438 12.4219C26.0833 12.4948 26.8177 12.6615 27.5469 12.9219C28.276 13.1719 28.9427 13.5729 29.5469 14.125C30.151 14.6667 30.6354 15.4115 31 16.3594C31.375 17.2969 31.5625 18.4896 31.5625 19.9375V20.6094C31.5625 24.6094 30.3594 27.1823 27.9531 28.3281L32.3438 39H28.0312L24.3594 29.0156H22.9688V39H18.9219V12.3125ZM23.5 26.0938C24.9792 26.0938 25.9948 25.75 26.5469 25.0625C27.1094 24.375 27.3906 23.1354 27.3906 21.3438V19.2344C27.3906 17.8594 27.125 16.849 26.5938 16.2031C26.0729 15.5573 25.0417 15.2344 23.5 15.2344H22.9688V26.0938H23.5Z" fill="white"/>
</svg>
